<svg width="74" height="60" viewBox="0 0 74 60" fill="none" xmlns="http://www.w3.org/2000/svg">
<g filter="url(#filter0_dd_8705_160171)">
<rect x="3" y="2" width="68" height="53.3182" rx="12" fill="white"/>
</g>
<g clip-path="url(#clip0_8705_160171)">
<path d="M46.0352 35.142C45.6848 35.9528 45.27 36.6992 44.7894 37.3855C44.1343 38.3209 43.5979 38.9685 43.1845 39.3281C42.5437 39.9183 41.8572 40.2206 41.122 40.2378C40.5942 40.2378 39.9577 40.0874 39.2168 39.7822C38.4734 39.4785 37.7903 39.3281 37.1656 39.3281C36.5105 39.3281 35.808 39.4785 35.0564 39.7822C34.3038 40.0874 33.6975 40.2464 33.2339 40.2621C32.5289 40.2922 31.8262 39.9814 31.1247 39.3281C30.677 38.937 30.117 38.2665 29.4462 37.3167C28.7264 36.3024 28.1347 35.1262 27.6711 33.7853C27.1747 32.3369 26.9258 30.9344 26.9258 29.5765C26.9258 28.0212 27.2613 26.6797 27.9335 25.5555C28.4617 24.6525 29.1644 23.9402 30.0439 23.4173C30.9235 22.8944 31.8738 22.6279 32.8972 22.6109C33.4572 22.6109 34.1915 22.7844 35.1041 23.1253C36.0141 23.4674 36.5984 23.6409 36.8545 23.6409C37.0461 23.6409 37.6952 23.4381 38.7955 23.0336C39.8361 22.6586 40.7143 22.5033 41.4338 22.5645C43.3834 22.7221 44.848 23.4918 45.8221 24.8786C44.0785 25.9367 43.216 27.4187 43.2332 29.32C43.2489 30.8009 43.7853 32.0332 44.8395 33.0117C45.3172 33.4658 45.8507 33.8168 46.4443 34.0661C46.3156 34.44 46.1797 34.7981 46.0352 35.142ZM41.564 17.5194C41.564 18.6801 41.1406 19.7638 40.2967 20.767C39.2783 21.9595 38.0464 22.6486 36.7106 22.5398C36.6936 22.4006 36.6838 22.254 36.6838 22.1C36.6838 20.9857 37.1681 19.7932 38.0281 18.8182C38.4575 18.3245 39.0036 17.914 39.6659 17.5866C40.3267 17.264 40.9518 17.0856 41.5396 17.0551C41.5568 17.2102 41.564 17.3654 41.564 17.5194V17.5194Z" fill="black"/>
</g>
<defs>
<filter id="filter0_dd_8705_160171" x="0" y="0" width="74" height="59.3182" filterUnits="userSpaceOnUse" color-interpolation-filters="sRGB">
<feFlood flood-opacity="0" result="BackgroundImageFix"/>
<feColorMatrix in="SourceAlpha" type="matrix" values="0 0 0 0 0 0 0 0 0 0 0 0 0 0 0 0 0 0 127 0" result="hardAlpha"/>
<feOffset dy="1"/>
<feGaussianBlur stdDeviation="1.5"/>
<feColorMatrix type="matrix" values="0 0 0 0 0.196078 0 0 0 0 0.196078 0 0 0 0 0.278431 0 0 0 0.1 0"/>
<feBlend mode="normal" in2="BackgroundImageFix" result="effect1_dropShadow_8705_160171"/>
<feColorMatrix in="SourceAlpha" type="matrix" values="0 0 0 0 0 0 0 0 0 0 0 0 0 0 0 0 0 0 127 0" result="hardAlpha"/>
<feOffset/>
<feGaussianBlur stdDeviation="0.5"/>
<feColorMatrix type="matrix" values="0 0 0 0 0.0470588 0 0 0 0 0.101961 0 0 0 0 0.294118 0 0 0 0.2 0"/>
<feBlend mode="normal" in2="effect1_dropShadow_8705_160171" result="effect2_dropShadow_8705_160171"/>
<feBlend mode="normal" in="SourceGraphic" in2="effect2_dropShadow_8705_160171" result="shape"/>
</filter>
<clipPath id="clip0_8705_160171">
<rect width="19.5185" height="23.2091" fill="white" transform="translate(26.9258 17.0546)"/>
</clipPath>
</defs>
</svg>
