<svg width="32" height="33" viewBox="0 0 32 33" fill="none" xmlns="http://www.w3.org/2000/svg">
<path opacity="0.1" fill-rule="evenodd" clip-rule="evenodd" d="M0 16.8105C0 7.97399 7.16344 0.810547 16 0.810547C24.8366 0.810547 32 7.97399 32 16.8105C32 25.6471 24.8366 32.8105 16 32.8105C7.16344 32.8105 0 25.6471 0 16.8105Z" fill="#FAFAFA"/>
<path d="M11.546 10.6923C11.5224 9.62415 10.7586 8.81055 9.51815 8.81055C8.27774 8.81055 7.4668 9.62415 7.4668 10.6923C7.4668 11.7384 8.25377 12.5754 9.47108 12.5754H9.49426C10.7586 12.5754 11.546 11.7384 11.546 10.6923Z" fill="#FAFAFA"/>
<path d="M11.3072 14.0625H7.68121V24.957H11.3072V14.0625Z" fill="#FAFAFA"/>
<path d="M20.2089 13.8066C22.5949 13.8066 24.3837 15.3641 24.3837 18.7104L24.3836 24.9569H20.7578V19.1284C20.7578 17.6644 20.2331 16.6654 18.9205 16.6654C17.9187 16.6654 17.3221 17.3389 17.06 17.9893C16.9641 18.2225 16.9406 18.5473 16.9406 18.8729V24.9572H13.3142C13.3142 24.9572 13.362 15.085 13.3142 14.0628H16.9406V15.6059C17.4218 14.8641 18.2838 13.8066 20.2089 13.8066Z" fill="#FAFAFA"/>
</svg>
