<svg width="148" height="33" viewBox="0 0 148 33" fill="none" xmlns="http://www.w3.org/2000/svg">
<path d="M17.6609 4.58333H4.82145V12.375H17.288V16.9853H4.82145V27.8235H17.6609V32.4069H0V0H17.6609V4.58333Z" fill="#F8F9FA"/>
<path d="M23.9739 32.407H18.2734L34.6291 11.9707H40.3562L23.9739 32.407ZM34.1763 22.9707L41.5283 32.407H35.9876L31.3526 26.3947L34.1763 22.9707ZM25.8919 19.5197L20.0049 11.9707H25.5722L28.6888 16.0957L25.8919 19.5197Z" fill="#F8F9FA"/>
<path d="M56.7402 11.97H61.4284V32.4062H56.7402V30.2763C54.8222 32.1097 52.7445 32.9994 50.5335 32.9994C47.7366 32.9994 45.4457 31.9749 43.6077 29.9259C41.7963 27.8499 40.8906 25.2347 40.8906 22.1072C40.8906 19.0337 41.7963 16.4994 43.6077 14.4504C45.3125 12.4553 47.8165 11.3229 50.4004 11.3768C52.7445 11.3768 54.8489 12.3474 56.7135 14.3156L56.7402 11.97ZM45.6588 22.1342C45.6588 24.1023 46.1649 25.693 47.2038 26.9332C48.1894 28.1464 49.6811 28.8205 51.2261 28.7935C52.9576 28.7935 54.3428 28.2004 55.4083 26.9871C56.4738 25.7469 57.0065 24.1563 57.0065 22.242C57.0065 20.3278 56.4738 18.7371 55.4083 17.4969C54.3694 16.2837 52.851 15.6097 51.2528 15.6636C49.7078 15.6366 48.216 16.3107 47.2304 17.5239C46.1916 18.7371 45.6588 20.2739 45.6588 22.1342Z" fill="#F8F9FA"/>
<path d="M65.1829 11.9707H69.8445V13.8579C70.7502 12.9143 71.5227 12.2672 72.1354 11.9167C72.9345 11.5393 73.8136 11.3506 74.6926 11.3775C76.9835 11.3775 78.7682 12.3751 80.1001 14.3971C81.5652 12.3751 83.5364 11.3775 86.0403 11.3775C90.5954 11.3775 92.8596 14.1815 92.8596 19.7623V32.4069H88.1714V21.0565C88.1714 19.0883 87.9316 17.7133 87.4788 16.9045C86.9993 16.0957 86.2002 15.6913 85.0814 15.6643C83.8028 15.6643 82.8704 16.1496 82.2844 17.1471C81.6984 18.1177 81.4054 19.7084 81.4054 21.8653V32.4339H76.7171V21.1104C76.7171 17.4707 75.6782 15.6643 73.6004 15.6643C72.2952 15.6643 71.3362 16.1496 70.7236 17.1471C70.1109 18.1447 69.8179 19.7084 69.8179 21.8383V32.4069H65.1562L65.1829 11.9707Z" fill="#F8F9FA"/>
<path d="M95.9492 3.45162C95.9492 2.6428 96.2689 1.86094 96.8549 1.32172C98.027 0.135445 99.9449 0.108484 101.144 1.32172C101.73 1.8879 102.049 2.66976 102.049 3.47858C102.076 4.28741 101.73 5.09623 101.144 5.66241C100.584 6.25554 99.8117 6.57907 99.0126 6.57907C98.1868 6.60603 97.4143 6.25554 96.8549 5.66241C96.2689 5.09623 95.9492 4.28741 95.9492 3.45162ZM101.33 11.9712V32.4075H96.6684V11.9712H101.33Z" fill="#F8F9FA"/>
<path d="M105.113 11.9705H109.802V13.8577C111.426 12.2131 113.264 11.4043 115.316 11.4043C117.66 11.4043 119.498 12.1592 120.803 13.642C121.948 14.9092 122.508 16.9852 122.508 19.87V32.4067H117.82V21.0023C117.82 18.9803 117.553 17.6053 116.994 16.8234C116.434 16.0685 115.449 15.6641 114.064 15.6371C112.519 15.6371 111.426 16.1494 110.761 17.2009C110.095 18.2523 109.802 20.0048 109.802 22.5391V32.3798H105.113V11.9705Z" fill="#F8F9FA"/>
<path d="M144.672 23.2942H130.207C130.341 24.9657 130.873 26.3138 131.832 27.3113C132.791 28.3089 134.123 28.8211 135.508 28.7672C136.521 28.8211 137.533 28.5245 138.385 27.9314C139.131 27.3652 139.984 26.3407 140.943 24.8309L144.885 27.0417C144.326 28.0123 143.686 28.902 142.967 29.7378C142.328 30.4657 141.608 31.0858 140.783 31.5981C140.01 32.0834 139.158 32.4339 138.279 32.6495C137.32 32.8922 136.334 33 135.349 32.9731C132.339 32.9731 129.914 32.0025 128.103 30.0343C126.292 28.0662 125.359 25.451 125.359 22.1888C125.359 18.9535 126.238 16.3383 128.023 14.3432C129.808 12.3481 132.152 11.3505 135.109 11.3775C138.092 11.3775 140.436 12.3481 142.168 14.2623C143.899 16.1765 144.752 18.8187 144.752 22.1888L144.672 23.2942ZM139.877 19.4388C139.238 16.9314 137.666 15.6642 135.162 15.6642C134.629 15.6642 134.07 15.7451 133.564 15.9339C133.084 16.0956 132.605 16.3652 132.205 16.6888C131.806 17.0123 131.433 17.4167 131.166 17.875C130.873 18.3603 130.634 18.8995 130.5 19.4388H139.877Z" fill="#F8F9FA"/>
<path d="M143.153 6.63233H142.141V6.25488H144.618V6.63233H143.579V9.6789H143.153V6.63233Z" fill="#F8F9FA"/>
<path d="M145.202 6.25488H145.709L146.348 8.08822C146.428 8.33086 146.508 8.57351 146.588 8.7892H146.614C146.694 8.54655 146.774 8.3039 146.854 8.08822L147.493 6.25488H147.999V9.6789H147.6V7.79165C147.6 7.49508 147.626 7.09067 147.653 6.7941H147.626L147.36 7.57596L146.721 9.35537H146.428L145.788 7.57596L145.522 6.7941H145.495C145.522 7.09067 145.549 7.49508 145.549 7.79165V9.6789H145.176V6.25488H145.202Z" fill="#F8F9FA"/>
</svg>
