<svg width="137" height="31" viewBox="0 0 137 31" fill="none" xmlns="http://www.w3.org/2000/svg">
<g clip-path="url(#clip0_4250_235989)">
<path d="M16.852 4.21171H5.05357V11.3716H16.5093V15.6081H5.05357V25.5676H16.852V29.7793H0.623047V0H16.852V4.21171Z" fill="#5E3B76"/>
<path d="M22.6533 29.7793H17.415L32.4446 11H37.7073L22.6533 29.7793ZM32.0284 21.1081L38.7844 29.7793H33.6929L29.4338 24.2545L32.0284 21.1081ZM24.4158 17.9369L19.0061 11H24.122L26.986 14.7905L24.4158 17.9369Z" fill="#5E3B76"/>
<path d="M52.7612 10.9999H57.0694V29.7791H52.7612V27.8219C50.9988 29.5066 49.0895 30.3242 47.0578 30.3242C44.4876 30.3242 42.3825 29.3827 40.6935 27.4999C39.029 25.5922 38.1968 23.189 38.1968 20.3152C38.1968 17.4909 39.029 15.162 40.6935 13.2791C42.2601 11.4458 44.5611 10.4053 46.9354 10.4548C49.0895 10.4548 51.0233 11.3467 52.7367 13.1553L52.7612 10.9999ZM42.5783 20.3399C42.5783 22.1485 43.0434 23.6102 43.9981 24.7499C44.9038 25.8647 46.2745 26.4841 47.6943 26.4593C49.2853 26.4593 50.5582 25.9143 51.5373 24.7994C52.5164 23.6598 53.006 22.1981 53.006 20.439C53.006 18.68 52.5164 17.2183 51.5373 16.0787C50.5827 14.9638 49.1874 14.3445 47.7187 14.394C46.299 14.3692 44.9282 14.9886 44.0226 16.1035C43.0679 17.2183 42.5783 18.6305 42.5783 20.3399Z" fill="#5E3B76"/>
<path d="M60.5206 10.9995H64.8042V12.7338C65.6365 11.8666 66.3463 11.272 66.9093 10.95C67.6437 10.6031 68.4515 10.4297 69.2592 10.4545C71.3643 10.4545 73.0044 11.3711 74.2283 13.2293C75.5746 11.3711 77.3859 10.4545 79.6869 10.4545C83.8726 10.4545 85.9533 13.0311 85.9533 18.1594V29.7788H81.6451V19.3486C81.6451 17.5401 81.4248 16.2765 81.0087 15.5333C80.5681 14.7901 79.8337 14.4184 78.8057 14.3937C77.6307 14.3937 76.774 14.8396 76.2355 15.7563C75.697 16.6482 75.4277 18.1099 75.4277 20.0919V29.8036H71.1196V19.3982C71.1196 16.0536 70.1649 14.3937 68.2556 14.3937C67.0562 14.3937 66.175 14.8396 65.612 15.7563C65.049 16.6729 64.7798 18.1099 64.7798 20.0671V29.7788H60.4961L60.5206 10.9995Z" fill="#5E3B76"/>
<path d="M88.7925 3.17081C88.7925 2.42757 89.0862 1.7091 89.6247 1.2136C90.7018 0.123513 92.4642 0.0987382 93.5657 1.2136C94.1042 1.73387 94.3979 2.45234 94.3979 3.19558C94.4224 3.93883 94.1042 4.68207 93.5657 5.20234C93.0516 5.74739 92.3418 6.04468 91.6074 6.04468C90.8486 6.06946 90.1388 5.74739 89.6247 5.20234C89.0862 4.68207 88.7925 3.93883 88.7925 3.17081ZM93.737 10.9996V29.7789H89.4534V10.9996H93.737Z" fill="#5E3B76"/>
<path d="M97.2139 10.9998H101.522V12.734C103.015 11.2227 104.704 10.4795 106.589 10.4795C108.743 10.4795 110.432 11.1732 111.631 12.5358C112.684 13.7002 113.198 15.6079 113.198 18.2588V29.779H108.89V19.2993C108.89 17.4412 108.645 16.1777 108.131 15.4592C107.617 14.7655 106.711 14.3939 105.438 14.3691C104.019 14.3691 103.015 14.8399 102.403 15.8061C101.791 16.7723 101.522 18.3826 101.522 20.7115V29.7543H97.2139V10.9998Z" fill="#5E3B76"/>
<path d="M133.563 21.405H120.271C120.394 22.9411 120.883 24.1798 121.765 25.0965C122.646 26.0132 123.87 26.4839 125.143 26.4343C126.073 26.4839 127.003 26.2113 127.786 25.6663C128.472 25.146 129.255 24.2046 130.136 22.8172L133.759 24.8487C133.245 25.7406 132.657 26.5582 131.996 27.3262C131.409 27.9951 130.748 28.565 129.989 29.0357C129.279 29.4816 128.496 29.8037 127.688 30.0019C126.807 30.2249 125.901 30.324 124.996 30.2992C122.23 30.2992 120.002 29.4073 118.338 27.5987C116.673 25.7902 115.816 23.387 115.816 20.3893C115.816 17.4163 116.624 15.0131 118.264 13.1798C119.904 11.3465 122.058 10.4298 124.775 10.4546C127.517 10.4546 129.671 11.3465 131.262 13.1055C132.853 14.8645 133.636 17.2924 133.636 20.3893L133.563 21.405ZM129.157 17.8622C128.569 15.5582 127.125 14.3938 124.824 14.3938C124.335 14.3938 123.821 14.4681 123.356 14.6415C122.915 14.7902 122.474 15.0379 122.107 15.3352C121.74 15.6325 121.397 16.0041 121.153 16.4253C120.883 16.8713 120.663 17.3668 120.541 17.8622H129.157Z" fill="#5E3B76"/>
<path d="M132.168 6.09489H131.238V5.74805H133.514V6.09489H132.56V8.89444H132.168V6.09489Z" fill="#5E3B76"/>
<path d="M134.052 5.74805H134.517L135.105 7.43273C135.178 7.6557 135.252 7.87868 135.325 8.07688H135.35C135.423 7.8539 135.497 7.63093 135.57 7.43273L136.157 5.74805H136.622V8.89444H136.255V7.16021C136.255 6.88769 136.28 6.51607 136.304 6.24354H136.28L136.035 6.96201L135.448 8.59715H135.178L134.591 6.96201L134.346 6.24354H134.322C134.346 6.51607 134.371 6.88769 134.371 7.16021V8.89444H134.028V5.74805H134.052Z" fill="#5E3B76"/>
</g>
<defs>
<clipPath id="clip0_4250_235989">
<rect width="136" height="30.3243" fill="white" transform="translate(0.623047)"/>
</clipPath>
</defs>
</svg>
