<svg width="21" height="21" viewBox="0 0 21 21" fill="none" xmlns="http://www.w3.org/2000/svg">
<g clip-path="url(#clip0_8721_14133)">
<path d="M9.39907 0.476562C4.53628 0.476562 0.579834 4.36527 0.579834 9.14481C0.579834 13.9246 4.53628 17.8131 9.39907 17.8131C14.2621 17.8131 18.2183 13.9246 18.2183 9.14481C18.2183 4.36527 14.2621 0.476562 9.39907 0.476562ZM9.39907 16.2128C5.43395 16.2128 2.208 13.0421 2.208 9.14485C2.208 5.24761 5.43395 2.07686 9.39907 2.07686C13.3642 2.07686 16.5901 5.24757 16.5901 9.14481C16.5901 13.0421 13.3642 16.2128 9.39907 16.2128Z" fill="#5E3B76"/>
<path d="M20.3674 18.7937L15.7 14.2061C15.3819 13.8935 14.8669 13.8935 14.5488 14.2061C14.2308 14.5184 14.2308 15.0252 14.5488 15.3376L19.2163 19.9251C19.3753 20.0814 19.5834 20.1595 19.7918 20.1595C20 20.1595 20.2084 20.0814 20.3674 19.9251C20.6855 19.6128 20.6855 19.106 20.3674 18.7937Z" fill="#5E3B76"/>
</g>
<defs>
<clipPath id="clip0_8721_14133">
<rect width="20.0265" height="19.6836" fill="white" transform="translate(0.579834 0.476562)"/>
</clipPath>
</defs>
</svg>
