<svg width="32" height="33" viewBox="0 0 32 33" fill="none" xmlns="http://www.w3.org/2000/svg">
<path opacity="0.1" fill-rule="evenodd" clip-rule="evenodd" d="M0 16.8105C0 7.97399 7.16344 0.810547 16 0.810547C24.8366 0.810547 32 7.97399 32 16.8105C32 25.6471 24.8366 32.8105 16 32.8105C7.16344 32.8105 0 25.6471 0 16.8105Z" fill="#FAFAFA"/>
<path fill-rule="evenodd" clip-rule="evenodd" d="M15.5208 13.8152L15.5544 14.3688L14.9948 14.301C12.9579 14.0411 11.1784 13.1598 9.66756 11.6797L8.92891 10.9453L8.73865 11.4876C8.33575 12.6966 8.59316 13.9733 9.43253 14.832C9.8802 15.3066 9.77948 15.3744 9.00725 15.0919C8.73865 15.0015 8.50363 14.9337 8.48124 14.9676C8.4029 15.0467 8.6715 16.0749 8.88414 16.4816C9.17513 17.0466 9.76828 17.6002 10.4174 17.9279L10.9658 18.1878L10.3167 18.1991C9.68994 18.1991 9.66756 18.2104 9.73471 18.4476C9.95854 19.182 10.8427 19.9616 11.8276 20.3006L12.5214 20.5379L11.9171 20.8994C11.0218 21.4192 9.96973 21.7129 8.91772 21.7355C8.41409 21.7468 8 21.792 8 21.8259C8 21.9389 9.36538 22.5716 10.16 22.8202C12.5438 23.5546 15.3753 23.2383 17.5017 21.9841C19.0126 21.0915 20.5235 19.3176 21.2286 17.6002C21.6091 16.685 21.9896 15.0128 21.9896 14.2106C21.9896 13.6909 22.0232 13.6231 22.6499 13.0017C23.0192 12.6401 23.3662 12.2446 23.4333 12.1317C23.5452 11.917 23.534 11.917 22.9633 12.1091C22.012 12.448 21.8777 12.4028 22.3477 11.8944C22.6947 11.5328 23.1088 10.8775 23.1088 10.6854C23.1088 10.6515 22.9409 10.708 22.7506 10.8097C22.5492 10.9227 22.1015 11.0922 21.7658 11.1939L21.1614 11.3859L20.613 11.0131C20.3108 10.8097 19.8856 10.5837 19.6617 10.5159C19.0909 10.3578 18.218 10.3804 17.7032 10.5611C16.3042 11.0696 15.4201 12.3802 15.5208 13.8152Z" fill="#FAFAFA"/>
</svg>
