<svg width="32" height="33" viewBox="0 0 32 33" fill="none" xmlns="http://www.w3.org/2000/svg">
<path opacity="0.1" fill-rule="evenodd" clip-rule="evenodd" d="M0 16.8105C0 7.97399 7.16344 0.810547 16 0.810547C24.8366 0.810547 32 7.97399 32 16.8105C32 25.6471 24.8366 32.8105 16 32.8105C7.16344 32.8105 0 25.6471 0 16.8105Z" fill="#FAFAFA"/>
<path fill-rule="evenodd" clip-rule="evenodd" d="M22.6679 11.3106C23.4022 11.5121 23.9805 12.1058 24.1768 12.8598C24.5335 14.2264 24.5335 17.0777 24.5335 17.0777C24.5335 17.0777 24.5335 19.9289 24.1768 21.2955C23.9805 22.0495 23.4022 22.6433 22.6679 22.8449C21.3371 23.211 16.0001 23.211 16.0001 23.211C16.0001 23.211 10.6632 23.211 9.3323 22.8449C8.59795 22.6433 8.01962 22.0495 7.82335 21.2955C7.4668 19.9289 7.4668 17.0777 7.4668 17.0777C7.4668 17.0777 7.4668 14.2264 7.82335 12.8598C8.01962 12.1058 8.59795 11.5121 9.3323 11.3106C10.6632 10.9443 16.0001 10.9443 16.0001 10.9443C16.0001 10.9443 21.3371 10.9443 22.6679 11.3106ZM14.4001 14.6776V20.0109L18.6668 17.3444L14.4001 14.6776Z" fill="#FAFAFA"/>
</svg>
